<?xml version="1.0" encoding="UTF-8"?>
<svg xmlns="http://www.w3.org/2000/svg" viewBox="0 0 512 512" width="512" height="512">
  <!-- Style: Signature Coral Circle | Icon: WhatsApp (Solo) -->
  
      <defs>
        <linearGradient id="coralCircGrad" x1="0%" y1="0%" x2="100%" y2="100%">
          <stop offset="0%" stop-color="#ff705d"/>
          <stop offset="100%" stop-color="#fa5d48"/>
        </linearGradient>
        <filter id="shadowCirc" x="-15%" y="-10%" width="130%" height="135%">
          <feDropShadow dx="0" dy="18" stdDeviation="22" flood-color="rgba(250, 93, 72, 0.32)"/>
        </filter>
      </defs>
      <circle cx="256" cy="256" r="198" fill="url(#coralCircGrad)" filter="url(#shadowCirc)"/>
      <circle cx="256" cy="256" r="196" fill="none" stroke="rgba(255, 255, 255, 0.3)" stroke-width="3"/>
    
  
      <!-- WhatsApp Bubble -->
      <path d="M 256 118 C 179.8 118 118 179.8 118 256 C 118 282.6 125.6 307.5 138.8 328.7 L 122 390 L 185.6 373.4 C 206.2 385.6 230.3 392.8 256 392.8 C 332.2 392.8 394 331 394 256 C 394 179.8 332.2 118 256 118 Z" 
            fill="none" stroke="#ffffff" stroke-width="26" stroke-linecap="round" stroke-linejoin="round"/>
      <!-- Handset -->
      <path d="M 206 194 C 201 194 193 199 187 207 C 177 218 175 233 182 248 C 203 289 238 324 282 346 C 295 353 310 351 321 342 L 333 332 C 340 326 343 317 341 308 L 331 283 C 328 274 319 269 310 271 L 295 276 C 279 264 266 250 256 233 L 264 220 C 269 211 267 200 258 195 L 234 182 C 227 179 219 180 206 194 Z" 
            fill="#ffffff"/>
    
</svg>